{"title":"Textuality 2011 DVDRip XviD aAF","uid":6359519,"size":742902050,"categoryP":"video","categoryS":"movies","magnet":"?xt=urn:btih:06cd60c30112b9bc80b826f2ba554a33cde28659&amp;dn=Textuality+2011+DVDRip+XviD+aAF&amp;tr=udp%3A%2F%2Ftracker.openbittorrent.com%3A80&amp;tr=udp%3A%2F%2Fopen.demonii.com%3A1337&amp;tr=udp%3A%2F%2Ftracker.coppersurfer.tk%3A6969&amp;tr=udp%3A%2F%2Fexodus.desync.com%3A6969","seeders":0,"leechers":1,"uploader":"qwersd","files":-1,"time":1304280720,"description":"Two people attempt to get into a relationship, while exiting the multiple \nrelationships they were each managing through their Blackberries \nbefore they met.\n\nFormat : AVI\nFormat/Info : Audio Video Interleave\nFile size : 700 MiB\nDuration : 1h 30mn\nOverall bit rate : 1 084 Kbps\nWriting application : VirtualDubMod 1.5.10.2 (build 2540/release)\nWriting library : VirtualDubMod build 2540/release\n\nVideo\nID : 0\nFormat : MPEG-4 Visual\nFormat profile : Advanced Simple@L5\nFormat settings, BVOP : Yes\nFormat settings, QPel : No\nFormat settings, GMC : No warppoints\nFormat settings, Matrix : Default (H.263)\nCodec ID : XVID\nCodec ID/Hint : XviD\nDuration : 1h 30mn\nBit rate : 942 Kbps\nWidth : 624 pixels\nHeight : 352 pixels\nDisplay aspect ratio : 16:9\nFrame rate : 25.000 fps\nColor space : YUV\nChroma subsampling : 4:2:0\nBit depth : 8 bits\nScan type : Progressive\nBits/(Pixel*Frame) : 0.172\nStream size : 609 MiB (87%)\nWriting library : XviD 62\n\nAudio\nID : 1\nFormat : MPEG Audio\nFormat version : Version 1\nFormat profile : Layer 3\nMode : Joint stereo\nMode extension : MS Stereo\nCodec ID : 55\nCodec ID/Hint : MP3\nDuration : 1h 30mn\nBit rate mode : Variable\nBit rate : 128 Kbps\nChannel(s) : 2 channels\nSampling rate : 48.0 KHz\nStream size : 82.9 MiB (12%)\nAlignment : Aligned on interleaves\nInterleave, duration : 24 ms (0.60 video frame)\nInterleave, preload duration : 143 ms\nWriting library : LAME3.90.\nEncoding settings : -m j -V 4 -q 2 -lowpass 17.6 --abr 128\n\n\niNFO:\n &lt;a href=&quot;\nhttp://1337x.org/nfo-196494.png&quot; rel=&quot;nofollow&quot; target=&quot;_NEW&quot;&gt;\nhttp://1337x.org/nfo-196494.png&lt;/a&gt;","torrent":{"xt":"urn:btih:06cd60c30112b9bc80b826f2ba554a33cde28659","amp;dn":"Textuality+2011+DVDRip+XviD+aAF","amp;tr":["udp%3A%2F%2Ftracker.openbittorrent.com%3A80","udp%3A%2F%2Fopen.demonii.com%3A1337","udp%3A%2F%2Ftracker.coppersurfer.tk%3A6969","udp%3A%2F%2Fexodus.desync.com%3A6969"],"infoHash":"06cd60c30112b9bc80b826f2ba554a33cde28659","infoHashBuffer":{"type":"Buffer","data":[6,205,96,195,1,18,185,188,128,184,38,242,186,85,74,51,205,226,134,89]},"announce":[],"urlList":[]}}